#!OML:ASF F:\VICON\USERDATA\INSTALL\rory3\rory3.ASF
:FULLY-SPECIFIED
:DEGREES
10
root 0.13138440264272738 17.93160021139234 -23.368686168333696 6.744304651313106 -1.7672196240745461 -4.919269596693539
lfemur -43.19798701146213 6.530926151485438 -13.388010065903233
ltibia 92.83678579747875
lfoot 8.214277868039254 -13.258994673700037
ltoes -8.626554574481592
rfemur -2.9086062654727574 6.9680608918212155 33.76529114396308
rtibia 37.84120800849141
rfoot -11.596788138991709 -9.70982278347571
rtoes -17.878182950076862
lowerback 15.569095295523894 1.2532463895191528 5.144789860868151
upperback -1.1657254965025534 2.8864432518189864 2.510360975222449
thorax -9.924000024405036 1.1776541477253715 -0.8730293582762133
lowerneck -18.411001768184175 -4.891484306705726 -3.0208503557894684
upperneck 11.04888695673182 -6.413515115868908 3.774386744742224
head 6.582959190490975 -2.8966142555573637 0.999910189099487
lclavicle -1.5444326255273094e-15 -3.2962023817926767e-15
lhumerus -57.573293635970494 -7.85641844932624 94.25828992657664
lradius 104.60500920463714
lwrist 27.37941174575187
lhand -19.86451923577574 5.483821924050774
lfingers 7.12502
lthumb 6.470620927668515 35.36499227951369
rclavicle -1.5444326255273094e-15 -3.2962023817926767e-15
rhumerus -34.819812747275414 14.6929956562032 -98.20749917160295
rradius 119.7379901943701
rwrist -27.1571825802957
rhand -18.457400263205443 42.169691911408506
rfingers 7.12502
rthumb 7.828869736088012 12.334692005542658
11
root 0.17445790755597385 18.188895867275214 -22.29328839587578 6.293577204085182 -0.9864603786170983 -4.641370927724653
lfemur -43.396486103659186 5.102419021082144 -14.556407928032904
ltibia 85.50798746142422
lfoot 5.270409657626541 -12.183296165094918
ltoes -16.384796972534424
rfemur 1.7104915830482437 5.953553198113758 32.93019279840703
rtibia 34.334909335555764
rfoot -3.6646741975250974 -6.586358830567002
rtoes -18.78978097422204
lowerback 14.674299698812186 1.5328943348625415 5.2095196091472165
upperback -1.2011650558468512 3.2006516843031227 2.4547314055951572
thorax -9.426285343407569 1.337822328523946 -1.011964723357385
lowerneck -16.988510570148424 -5.062233168961321 -2.913283156299186
upperneck 9.844733393905054 -6.6601439613532785 3.773386811491789
head 5.968258038313203 -3.045822876619326 0.9981942224507149
lclavicle -1.544432484730775e-15 -3.296202316741768e-15
lhumerus -59.73069177015205 -5.9315828240875135 93.25389231706423
lradius 105.54200821591428
lwrist 27.940809853119948
lhand -19.949118908094132 4.5582453752141365
lfingers 7.12502
lthumb 6.388891189959289 34.44189560953998
rclavicle -1.544432484730775e-15 -3.296202316741768e-15
rhumerus -34.87241227739466 15.686594030353753 -97.44600121997739
rradius 121.99398760190564
rwrist -25.734788013609094
rhand -18.307100948835014 45.61788166199692
rfingers 7.12502
rthumb 7.973959049012854 15.788281952145983
12
root 0.21679239995929922 18.44479155966072 -21.19428893250419 5.51983161877086 0.3328995717768106 -4.037353417066349
lfemur -42.56218554629407 2.939022825794537 -15.879906134655132
ltibia 76.81759250660633
lfoot 5.368129616422653 -10.749798018593472
ltoes -19.904993595506216
rfemur 6.581868764747005 4.183907077243306 31.5664952826233
rtibia 30.327110718588255
rfoot 7.315359208346445 -3.459744816358201
rtoes -18.091481630727692
lowerback 13.15720711100205 1.6087337709771168 5.705387818373035
upperback -0.1439167270908298 3.1566820140275134 1.8816359990988707
thorax -7.350897660443038 1.3593520893526323 -1.8190811918254437
lowerneck -18.835599149227715 -5.504770410631731 -2.4230958940408756
upperneck 10.006892505840474 -7.36890094620216 3.983165358370078
head 6.334102784740505 -3.321510234821271 0.866942301034455
lclavicle -1.5444324604627384e-15 -3.2962022644578342e-15
lhumerus -59.59339182122661 -4.998195003061528 91.46629641946353
lradius 105.99100785873308
lwrist 29.114106044500623
lhand -21.538012853126286 5.610071516388655
lfingers 7.12502
lthumb 4.854887208282383 35.53449168954113
rclavicle -1.5444324604627384e-15 -3.2962022644578342e-15
rhumerus -33.780112694511416 16.912392139786274 -96.94380263358491
rradius 123.22298598310708
rwrist -20.076108916115427
rhand -22.596181645271542 43.557087818282554
rfingers 7.12502
rthumb 3.8330184872151696 13.61178817450456
13
root 0.2666226438095038 18.643588202480814 -20.088589381083697 4.903785127731687 1.58564282833228 -3.5529055625078096
lfemur -41.14138752271242 0.981289394372295 -16.950904385973914
ltibia 67.60549478762408
lfoot 5.819959291256944 -9.958759142641949
ltoes -18.935594497674046
rfemur 10.871886747990365 3.4136387884050645 30.579697118124407
rtibia 27.031912367368996
rfoot 17.550492141961552 -3.6630645051128914
rtoes -11.94798692207589
lowerback 12.286211327739872 1.4683347664257562 5.855297550582335
upperback -0.4365489327864787 2.9326429745233633 1.7422171078690047
thorax -7.173379555821043 1.2448434056864905 -1.981980443430809
lowerneck -17.48450745451038 -5.57150995801802 -2.6261406177303774
upperneck 10.225691381467255 -7.439770611395643 3.92837568936518
head 6.19251482262555 -3.3862796451800623 0.9025074804326378
lclavicle -1.544432524898548e-15 -3.2962023252531007e-15
lhumerus -62.162289702885474 -3.404528522037743 90.19729948090976
lradius 106.68100683970121
lwrist 30.13820274466107
lhand -20.93401516443531 5.4653820325859375
lfingers 7.12502
lthumb 5.438044980852601 35.37559222468932
rclavicle -1.544432524898548e-15 -3.2962023252531007e-15
rhumerus -35.40801142935694 18.66729000162973 -96.6963032786089
rradius 124.20298543813936
rwrist -16.179322990449933
rhand -25.599167800852886 37.63970526318591
rfingers 7.12502
rthumb 0.9329190194512673 7.661965661903642
14
root 0.2942056762945105 18.808185438538125 -19.01788727702825 4.497727453932101 2.5363507473545783 -3.1810770951085234
lfemur -39.394388311713826 -0.6406484977259042 -17.621603322925953
ltibia 57.920798456679286
lfoot 5.192749703902097 -8.424141193808415
ltoes -21.427291798824758
rfemur 13.79028497765467 3.993727432489388 30.41589731161111
rtibia 26.19641147979116
rfoot 24.184888777719394 -5.0358818324198324
rtoes 4.075790680879365
lowerback 13.850803737128002 1.5338743320366142 5.376478827948473
upperback -1.7750376227314146 3.136372088724525 1.7304071852990175
thorax -9.534774188496197 1.2680331483965408 -1.8491411040554504
lowerneck -17.229209057677807 -5.719869051047758 -2.558272383148689
upperneck 11.710683561321467 -7.665999559410233 3.5338883999393733
head 6.616118727613461 -3.508278423987953 0.7276916074865926
lclavicle -1.544432571656421e-15 -3.296202383008522e-15
lhumerus -65.59398743357562 -2.817949899494767 89.2997016151101
lradius 107.34500618036886
lwrist 30.367201965716117
lhand -21.522212653406967 5.672001332629623
lfingers 7.12502
lthumb 4.87016728691705 35.595991478387745
rclavicle -1.544432571656421e-15 -3.296202383008522e-15
rhumerus -37.97770929019155 18.7710897721495 -95.98630519243227
rradius 125.62398406777335
rwrist -18.918813008343093
rhand -22.942280060504594 41.00589530255566
rfingers 7.12502
rthumb 3.498819994481585 11.054895741856466
15
root 0.3419759865920461 18.940683187653484 -17.91528826844545 4.240648919827899 2.412960803682927 -2.8997383018152627
lfemur -37.0045895462206 -1.5430788035738103 -18.11560260721596
ltibia 48.081801924516355
lfoot 4.60835005367971 -7.580382272168729
ltoes -21.58899176033404
rfemur 15.419985793942109 5.978183100201218 30.634997049369332
rtibia 28.542311455900602
rfoot 27.520586365019657 -6.2520694641428145
rtoes 15.546292061648744
lowerback 13.399306024893413 1.9193114291763496 5.2236893322875755
upperback -1.9605051918928829 3.5870598815621033 1.573548453619389
thorax -9.444945146902652 1.488830676099 -2.0099103804708
lowerneck -17.956304581243177 -5.934847742874297 -2.689918959788272
upperneck 12.777077915665236 -7.96552812807826 3.5936579917308205
head 7.1008217700090634 -3.625457402907159 0.6985743043016337
lclavicle -1.544432608999906e-15 -3.296202347747316e-15
lhumerus -67.47518606655811 -2.715599997947975 88.23580420084966
lradius 108.25900483667014
lwrist 30.25440236406879
lhand -21.156914243258655 4.690934915537028
lfingers 7.12502
lthumb 5.222875723252664 34.606595007200006
rclavicle -1.544432608999906e-15 -3.296202347747316e-15
rhumerus -38.75620896217596 18.26419019010521 -94.71930855721749
rradius 126.57198290123739
rwrist -23.406096589680935
rhand -18.873298370553503 44.61538479557119
rfingers 7.12502
rthumb 7.427451603872902 14.765784914036363
